<svg xmlns="http://www.w3.org/2000/svg" xmlns:xlink="http://www.w3.org/1999/xlink" aria-hidden="true" role="img" class="iconify iconify--logos" width="35.93" height="32" preserveAspectRatio="xMidYMid meet" viewBox="0 0 256 228"><path fill="#00D8FF" d="M210.483 73.824a171.49 171.49 0 0 0-8.24-2.597c.465-1.5.932-2.987 1.376-4.45c6.238-20.037 8.04-36.537 5.188-48.207c-3.538-14.512-13.54-23.492-14.398-24.337a5.432 5.432 0 0 0-3.671-1.55c-.08 0-.17.007-.257.02c-.086.014-.17.034-.256.05a5.47 5.47 0 0 0-2.513 1.275c-.045.04-.088.08-.132.123c-6.05 5.713-25.499 25.707-45.676 56.782a171.23 171.23 0 0 0-7.627-1.12a170.898 170.898 0 0 0-20.398-1.23c-6.88 0-13.58.394-20.05 1.14c-1.72-3.073-3.5-6.097-5.33-9.062C70.276 11.67 49.95-8.733 43.66-14.58a5.144 5.144 0 0 0-.175-.145a5.472 5.472 0 0 0-2.64-1.312a5.406 5.406 0 0 0-.91-.09c-.05 0-.1-.005-.15-.005a5.432 5.432 0 0 0-3.784 1.605c-.77.77-10.35 9.97-13.66 23.78c-2.78 11.48-.88 28.15 5.5 48.5c.39 1.44.83 2.9 1.3 4.36c-2.78.88-5.5 1.83-8.15 2.85C4.07 81.33 0 90.72 0 100.12c0 5.74 1.73 11.25 4.98 16.14c1.1 1.65 2.35 3.2 3.72 4.63c-.95 2.96-1.83 5.97-2.64 9.02c-6.38 20.35-8.28 37.02-5.5 48.5c3.31 13.81 12.89 23.01 13.66 23.78a5.432 5.432 0 0 0 3.784 1.605c.05 0 .1-.005.15-.005c.31 0 .61-.03.91-.09a5.472 5.472 0 0 0 2.64-1.312c.06-.05.12-.1.175-.145c6.29-5.847 26.616-26.25 48.207-57.682a170.488 170.488 0 0 0 5.33-9.062a170.898 170.898 0 0 0 20.05 1.14c6.88 0 13.58-.394 20.05-1.14c1.83 2.965 3.61 5.99 5.33 9.062c21.59 31.432 41.916 51.835 48.207 57.682c.045.04.088.08.132.123a5.47 5.47 0 0 0 2.513 1.275c.086.016.17.036.256.05c.087.013.177.02.257.02a5.432 5.432 0 0 0 3.671-1.55c.858-.845 10.86-9.825 14.398-24.337c2.852-11.67 1.05-28.17-5.188-48.207c-.444-1.463-.911-2.95-1.376-4.45a171.49 171.49 0 0 0 8.24-2.597c6.17-2.12 11.48-5.4 15.71-9.62c3.25-3.25 5.06-7.4 5.06-11.89c.01-9.4-4.07-18.79-11.64-26.36Zm-8.24 32.36c-1.5 1.5-3.25 2.78-5.18 3.85a5.432 5.432 0 0 0-2.87 4.28a144.225 144.225 0 0 1-6.18 25.19a5.43 5.43 0 0 0 .6 5.08a146.314 146.314 0 0 1 11.5 20.12c-3.5 3.5-7.6 6.4-12.15 8.65a5.432 5.432 0 0 0-3.19 3.87a144.225 144.225 0 0 1-18.65 30.4a5.432 5.432 0 0 0-.4 5.18c1.5 3.2 3.25 6.3 5.18 9.23c-6.5 2.6-13.6 4.1-21.1 4.1c-4.2 0-8.28-.39-12.2-1.12a5.432 5.432 0 0 0-5.08 1.5a144.225 144.225 0 0 1-25.19 18.65a5.432 5.432 0 0 0-2.6 4.28c-.39 3.92-.78 7.8-1.35 11.58c-3.5 1.93-7.2 3.35-11.05 4.28c-4.2-6.3-6.5-14.1-5.5-22.4c.88-7.2 3.87-14.4 8.65-21.1a5.432 5.432 0 0 0 1.12-5.08a144.225 144.225 0 0 1-6.18-25.19a5.432 5.432 0 0 0-3.87-3.19c-4.55-2.25-8.65-5.15-12.15-8.65a146.314 146.314 0 0 1 11.5-20.12a5.432 5.432 0 0 0 .6-5.08a144.225 144.225 0 0 1-6.18-25.19a5.432 5.432 0 0 0-2.87-4.28c-1.93-1.07-3.68-2.35-5.18-3.85a146.314 146.314 0 0 1 11.5-20.12a5.432 5.432 0 0 0 1.5-5.08c-1.5-3.2-3.25-6.3-5.18-9.23c4.55-2.6 9.65-4.1 15.05-4.1c4.2 0 8.28.39 12.2 1.12a5.432 5.432 0 0 0 5.08-1.5a144.225 144.225 0 0 1 25.19-18.65a5.432 5.432 0 0 0 4.28-2.6c.39-3.92.78-7.8 1.35-11.58c3.5-1.93 7.2-3.35 11.05-4.28c4.2 6.3 6.5 14.1 5.5 22.4c-.88 7.2-3.87 14.4-8.65 21.1a5.432 5.432 0 0 0-1.12 5.08a144.225 144.225 0 0 1 6.18 25.19a5.432 5.432 0 0 0 3.87 3.19c4.55 2.25 8.65 5.15 12.15 8.65a146.314 146.314 0 0 1-11.5 20.12a5.432 5.432 0 0 0-.6 5.08a144.225 144.225 0 0 1 6.18 25.19a5.432 5.432 0 0 0 2.87 4.28c1.93 1.07 3.68 2.35 5.18 3.85a146.314 146.314 0 0 1-11.5 20.12a5.432 5.432 0 0 0-1.5 5.08c1.5 3.2 3.25 6.3 5.18 9.23c-4.55 2.6-9.65 4.1-15.05 4.1c-4.2 0-8.28-.39-12.2-1.12a5.432 5.432 0 0 0-5.08 1.5a144.225 144.225 0 0 1-25.19 18.65a5.432 5.432 0 0 0-2.6 4.28c-.57 3.78-.96 7.66-1.35 11.58c-3.92.39-7.8.78-11.58 1.35c-1.93-3.5-3.35-7.2-4.28-11.05c6.3-4.2 14.1-6.5 22.4-5.5c7.2.88 14.4 3.87 21.1 8.65a5.432 5.432 0 0 0 5.08 1.12a144.225 144.225 0 0 1 25.19-6.18a5.432 5.432 0 0 0 4.28-2.87c2.25-4.55 5.15-8.65 8.65-12.15a146.314 146.314 0 0 1 20.12 11.5a5.432 5.432 0 0 0 5.08.6a144.225 144.225 0 0 1 25.19-6.18a5.432 5.432 0 0 0 3.19-3.87c1.07-1.93 2.35-3.68 3.85-5.18a146.314 146.314 0 0 1 20.12 11.5a5.432 5.432 0 0 0 5.08 1.5c3.2 1.5 6.3 3.25 9.23 5.18c2.6-4.55 4.1-9.65 4.1-15.05c0-4.2-.39-8.28-1.12-12.2a5.432 5.432 0 0 0-1.5-5.08a144.225 144.225 0 0 1-18.65-25.19a5.432 5.432 0 0 0-4.28-2.6c-3.92-.39-7.8-.78-11.58-1.35c-1.93-3.5-3.35-7.2-4.28-11.05c6.3-4.2 14.1-6.5 22.4-5.5c7.2.88 14.4 3.87 21.1 8.65a5.432 5.432 0 0 0 5.08 1.12a144.225 144.225 0 0 1 25.19-6.18a5.432 5.432 0 0 0 4.28-2.87c2.25-4.55 5.15-8.65 8.65-12.15a146.314 146.314 0 0 1 20.12 11.5a5.432 5.432 0 0 0 5.08.6a144.225 144.225 0 0 1 25.19-6.18a5.432 5.432 0 0 0 3.19-3.87c1.07-1.93 2.35-3.68 3.85-5.18a146.314 146.314 0 0 1 20.12 11.5a5.432 5.432 0 0 0 5.08 1.5c3.2 1.5 6.3 3.25 9.23 5.18c2.6-4.55 4.1-9.65 4.1-15.05c0-4.2-.39-8.28-1.12-12.2a5.432 5.432 0 0 0-1.5-5.08a144.225 144.225 0 0 1-18.65-25.19a5.432 5.432 0 0 0-4.28-2.6c-3.92-.39-7.8-.78-11.58-1.35c-.57-3.78-.96-7.66-1.35-11.58a5.432 5.432 0 0 0-2.6-4.28a144.225 144.225 0 0 1-18.65-25.19a5.432 5.432 0 0 0-1.5-5.08c-.73-3.92-1.12-8-1.12-12.2c0-5.4 1.5-10.5 4.1-15.05c-3.2-1.5-6.3-3.25-9.23-5.18a5.432 5.432 0 0 0-5.08-1.5a146.314 146.314 0 0 1-20.12-11.5c-1.5 1.5-2.78 3.25-3.85 5.18a5.432 5.432 0 0 0-3.19 3.87a144.225 144.225 0 0 1-6.18 25.19a5.432 5.432 0 0 0-.6 5.08a146.314 146.314 0 0 1-11.5 20.12c-3.5-3.5-7.6-6.4-12.15-8.65a5.432 5.432 0 0 0-4.28-2.87a144.225 144.225 0 0 1-25.19-6.18a5.432 5.432 0 0 0-5.08-1.12c-6.7-4.78-13.9-7.77-21.1-8.65c-8.3-1-16.1 1.3-22.4 5.5c.93 3.85 2.35 7.55 4.28 11.05c3.78.57 7.66.96 11.58 1.35a5.432 5.432 0 0 0 2.6 4.28a144.225 144.225 0 0 1 25.19 18.65a5.432 5.432 0 0 0 5.08 1.5c3.92.73 8 1.12 12.2 1.12c5.4 0 10.5-1.5 15.05-4.1c1.93 2.93 3.68 6.03 5.18 9.23a5.432 5.432 0 0 0-1.5 5.08a146.314 146.314 0 0 1-11.5 20.12c1.5 1.5 3.25 2.78 5.18 3.85a5.432 5.432 0 0 0 2.87 4.28a144.225 144.225 0 0 1 6.18 25.19a5.432 5.432 0 0 0 .6 5.08a146.314 146.314 0 0 1 11.5 20.12Z"></path></svg>
